<svg id="visual" viewBox="0 0 422 200" width="422" height="200" xmlns="http://www.w3.org/2000/svg" xmlns:xlink="http://www.w3.org/1999/xlink" version="1.1"><rect x="0" y="0" width="422" height="200" fill="#bde0fe"></rect><path d="M0 90L5 91.3C10 92.7 20 95.3 30 96.8C40 98.3 50 98.7 60 99.7C70 100.7 80 102.3 90.2 98.8C100.3 95.3 110.7 86.7 120.8 83.5C131 80.3 141 82.7 151 86.5C161 90.3 171 95.7 181 92C191 88.3 201 75.7 211 76.7C221 77.7 231 92.3 241 93.5C251 94.7 261 82.3 271 80.5C281 78.7 291 87.3 301.2 91.2C311.3 95 321.7 94 331.8 91C342 88 352 83 362 82.5C372 82 382 86 392 89.8C402 93.7 412 97.3 417 99.2L422 101L422 201L417 201C412 201 402 201 392 201C382 201 372 201 362 201C352 201 342 201 331.8 201C321.7 201 311.3 201 301.2 201C291 201 281 201 271 201C261 201 251 201 241 201C231 201 221 201 211 201C201 201 191 201 181 201C171 201 161 201 151 201C141 201 131 201 120.8 201C110.7 201 100.3 201 90.2 201C80 201 70 201 60 201C50 201 40 201 30 201C20 201 10 201 5 201L0 201Z" fill="#5abdef"></path><path d="M0 116L5 113C10 110 20 104 30 99.3C40 94.7 50 91.3 60 89.3C70 87.3 80 86.7 90.2 87.5C100.3 88.3 110.7 90.7 120.8 96.2C131 101.7 141 110.3 151 109.7C161 109 171 99 181 96C191 93 201 97 211 98.5C221 100 231 99 241 99.7C251 100.3 261 102.7 271 103.5C281 104.3 291 103.7 301.2 105.5C311.3 107.3 321.7 111.7 331.8 112.8C342 114 352 112 362 107.7C372 103.3 382 96.7 392 98.8C402 101 412 112 417 117.5L422 123L422 201L417 201C412 201 402 201 392 201C382 201 372 201 362 201C352 201 342 201 331.8 201C321.7 201 311.3 201 301.2 201C291 201 281 201 271 201C261 201 251 201 241 201C231 201 221 201 211 201C201 201 191 201 181 201C171 201 161 201 151 201C141 201 131 201 120.8 201C110.7 201 100.3 201 90.2 201C80 201 70 201 60 201C50 201 40 201 30 201C20 201 10 201 5 201L0 201Z" fill="#84caf2"></path><path d="M0 126L5 126.2C10 126.3 20 126.7 30 123.7C40 120.7 50 114.3 60 113.8C70 113.3 80 118.7 90.2 119.3C100.3 120 110.7 116 120.8 114.3C131 112.7 141 113.3 151 116.5C161 119.7 171 125.3 181 128.8C191 132.3 201 133.7 211 134.3C221 135 231 135 241 133C251 131 261 127 271 121.7C281 116.3 291 109.7 301.2 110C311.3 110.3 321.7 117.7 331.8 120.3C342 123 352 121 362 121.5C372 122 382 125 392 123C402 121 412 114 417 110.5L422 107L422 201L417 201C412 201 402 201 392 201C382 201 372 201 362 201C352 201 342 201 331.8 201C321.7 201 311.3 201 301.2 201C291 201 281 201 271 201C261 201 251 201 241 201C231 201 221 201 211 201C201 201 191 201 181 201C171 201 161 201 151 201C141 201 131 201 120.8 201C110.7 201 100.3 201 90.2 201C80 201 70 201 60 201C50 201 40 201 30 201C20 201 10 201 5 201L0 201Z" fill="#a6d7f5"></path><path d="M0 126L5 125.7C10 125.3 20 124.7 30 126.2C40 127.7 50 131.3 60 135.3C70 139.3 80 143.7 90.2 143.3C100.3 143 110.7 138 120.8 134.5C131 131 141 129 151 130.2C161 131.3 171 135.7 181 137C191 138.3 201 136.7 211 135C221 133.3 231 131.7 241 134.7C251 137.7 261 145.3 271 147.7C281 150 291 147 301.2 145.2C311.3 143.3 321.7 142.7 331.8 140.8C342 139 352 136 362 138.2C372 140.3 382 147.7 392 151.3C402 155 412 155 417 155L422 155L422 201L417 201C412 201 402 201 392 201C382 201 372 201 362 201C352 201 342 201 331.8 201C321.7 201 311.3 201 301.2 201C291 201 281 201 271 201C261 201 251 201 241 201C231 201 221 201 211 201C201 201 191 201 181 201C171 201 161 201 151 201C141 201 131 201 120.8 201C110.7 201 100.3 201 90.2 201C80 201 70 201 60 201C50 201 40 201 30 201C20 201 10 201 5 201L0 201Z" fill="#c5e5f9"></path><path d="M0 161L5 162.7C10 164.3 20 167.7 30 168.3C40 169 50 167 60 164.3C70 161.7 80 158.3 90.2 155.2C100.3 152 110.7 149 120.8 150C131 151 141 156 151 157.5C161 159 171 157 181 155.5C191 154 201 153 211 154.2C221 155.3 231 158.7 241 160.2C251 161.7 261 161.3 271 162.8C281 164.3 291 167.7 301.2 168.2C311.3 168.7 321.7 166.3 331.8 166C342 165.7 352 167.3 362 165.5C372 163.7 382 158.3 392 156.2C402 154 412 155 417 155.5L422 156L422 201L417 201C412 201 402 201 392 201C382 201 372 201 362 201C352 201 342 201 331.8 201C321.7 201 311.3 201 301.2 201C291 201 281 201 271 201C261 201 251 201 241 201C231 201 221 201 211 201C201 201 191 201 181 201C171 201 161 201 151 201C141 201 131 201 120.8 201C110.7 201 100.3 201 90.2 201C80 201 70 201 60 201C50 201 40 201 30 201C20 201 10 201 5 201L0 201Z" fill="#e3f2fc"></path><path d="M0 165L5 165.7C10 166.3 20 167.7 30 170.5C40 173.3 50 177.7 60 180.7C70 183.7 80 185.3 90.2 185.7C100.3 186 110.7 185 120.8 182.8C131 180.7 141 177.3 151 177.2C161 177 171 180 181 178.8C191 177.7 201 172.3 211 170.2C221 168 231 169 241 170C251 171 261 172 271 174.5C281 177 291 181 301.2 180.5C311.3 180 321.7 175 331.8 172.5C342 170 352 170 362 170.8C372 171.7 382 173.3 392 175.8C402 178.3 412 181.7 417 183.3L422 185L422 201L417 201C412 201 402 201 392 201C382 201 372 201 362 201C352 201 342 201 331.8 201C321.7 201 311.3 201 301.2 201C291 201 281 201 271 201C261 201 251 201 241 201C231 201 221 201 211 201C201 201 191 201 181 201C171 201 161 201 151 201C141 201 131 201 120.8 201C110.7 201 100.3 201 90.2 201C80 201 70 201 60 201C50 201 40 201 30 201C20 201 10 201 5 201L0 201Z" fill="#ffffff"></path></svg>