<svg id="visual" viewBox="0 0 1920 700" width="1920" height="700" xmlns="http://www.w3.org/2000/svg" xmlns:xlink="http://www.w3.org/1999/xlink" version="1.1"><rect x="0" y="0" width="1920" height="700" fill="#9ed6f3"></rect><path d="M0 317L22.8 322C45.7 327 91.3 337 137 342.7C182.7 348.3 228.3 349.7 274 353C319.7 356.3 365.3 361.7 411.2 349.3C457 337 503 307 548.8 295.8C594.7 284.7 640.3 292.3 686 305.7C731.7 319 777.3 338 823 325C868.7 312 914.3 267 960 270.2C1005.7 273.3 1051.3 324.7 1097 328.8C1142.7 333 1188.3 290 1234 284C1279.7 278 1325.3 309 1371.2 322.3C1417 335.7 1463 331.3 1508.8 320.5C1554.7 309.7 1600.3 292.3 1646 290.5C1691.7 288.7 1737.3 302.3 1783 316.2C1828.7 330 1874.3 344 1897.2 351L1920 358L1920 701L1897.2 701C1874.3 701 1828.7 701 1783 701C1737.3 701 1691.7 701 1646 701C1600.3 701 1554.7 701 1508.8 701C1463 701 1417 701 1371.2 701C1325.3 701 1279.7 701 1234 701C1188.3 701 1142.7 701 1097 701C1051.3 701 1005.7 701 960 701C914.3 701 868.7 701 823 701C777.3 701 731.7 701 686 701C640.3 701 594.7 701 548.8 701C503 701 457 701 411.2 701C365.3 701 319.7 701 274 701C228.3 701 182.7 701 137 701C91.3 701 45.7 701 22.8 701L0 701Z" fill="#5abdef"></path><path d="M0 409L22.8 398.5C45.7 388 91.3 367 137 350.8C182.7 334.7 228.3 323.3 274 316C319.7 308.7 365.3 305.3 411.2 308.3C457 311.3 503 320.7 548.8 340.2C594.7 359.7 640.3 389.3 686 386.8C731.7 384.3 777.3 349.7 823 339.2C868.7 328.7 914.3 342.3 960 347.5C1005.7 352.7 1051.3 349.3 1097 351.5C1142.7 353.7 1188.3 361.3 1234 364.3C1279.7 367.3 1325.3 365.7 1371.2 372C1417 378.3 1463 392.7 1508.8 396.7C1554.7 400.7 1600.3 394.3 1646 379.3C1691.7 364.3 1737.3 340.7 1783 348.3C1828.7 356 1874.3 395 1897.2 414.5L1920 434L1920 701L1897.2 701C1874.3 701 1828.7 701 1783 701C1737.3 701 1691.7 701 1646 701C1600.3 701 1554.7 701 1508.8 701C1463 701 1417 701 1371.2 701C1325.3 701 1279.7 701 1234 701C1188.3 701 1142.7 701 1097 701C1051.3 701 1005.7 701 960 701C914.3 701 868.7 701 823 701C777.3 701 731.7 701 686 701C640.3 701 594.7 701 548.8 701C503 701 457 701 411.2 701C365.3 701 319.7 701 274 701C228.3 701 182.7 701 137 701C91.3 701 45.7 701 22.8 701L0 701Z" fill="#84caf2"></path><path d="M0 444L22.8 444.7C45.7 445.3 91.3 446.7 137 436.3C182.7 426 228.3 404 274 402.3C319.7 400.7 365.3 419.3 411.2 421.5C457 423.7 503 409.3 548.8 403.3C594.7 397.3 640.3 399.7 686 410.7C731.7 421.7 777.3 441.3 823 453.2C868.7 465 914.3 469 960 471.2C1005.7 473.3 1051.3 473.7 1097 467.2C1142.7 460.7 1188.3 447.3 1234 429C1279.7 410.7 1325.3 387.3 1371.2 388.3C1417 389.3 1463 414.7 1508.8 424C1554.7 433.3 1600.3 426.7 1646 428.7C1691.7 430.7 1737.3 441.3 1783 434.5C1828.7 427.7 1874.3 403.3 1897.2 391.2L1920 379L1920 701L1897.2 701C1874.3 701 1828.7 701 1783 701C1737.3 701 1691.7 701 1646 701C1600.3 701 1554.7 701 1508.8 701C1463 701 1417 701 1371.2 701C1325.3 701 1279.7 701 1234 701C1188.3 701 1142.7 701 1097 701C1051.3 701 1005.7 701 960 701C914.3 701 868.7 701 823 701C777.3 701 731.7 701 686 701C640.3 701 594.7 701 548.8 701C503 701 457 701 411.2 701C365.3 701 319.7 701 274 701C228.3 701 182.7 701 137 701C91.3 701 45.7 701 22.8 701L0 701Z" fill="#a6d7f5"></path><path d="M0 444L22.8 442.7C45.7 441.3 91.3 438.7 137 443.7C182.7 448.7 228.3 461.3 274 475.5C319.7 489.7 365.3 505.3 411.2 504.5C457 503.7 503 486.3 548.8 473.8C594.7 461.3 640.3 453.7 686 457.3C731.7 461 777.3 476 823 481.2C868.7 486.3 914.3 481.7 960 475.8C1005.7 470 1051.3 463 1097 473.2C1142.7 483.3 1188.3 510.7 1234 519C1279.7 527.3 1325.3 516.7 1371.2 510.3C1417 504 1463 502 1508.8 495.5C1554.7 489 1600.3 478 1646 485.3C1691.7 492.7 1737.3 518.3 1783 531.3C1828.7 544.3 1874.3 544.7 1897.2 544.8L1920 545L1920 701L1897.2 701C1874.3 701 1828.7 701 1783 701C1737.3 701 1691.7 701 1646 701C1600.3 701 1554.7 701 1508.8 701C1463 701 1417 701 1371.2 701C1325.3 701 1279.7 701 1234 701C1188.3 701 1142.7 701 1097 701C1051.3 701 1005.7 701 960 701C914.3 701 868.7 701 823 701C777.3 701 731.7 701 686 701C640.3 701 594.7 701 548.8 701C503 701 457 701 411.2 701C365.3 701 319.7 701 274 701C228.3 701 182.7 701 137 701C91.3 701 45.7 701 22.8 701L0 701Z" fill="#c5e5f9"></path><path d="M0 567L22.8 572.5C45.7 578 91.3 589 137 591.3C182.7 593.7 228.3 587.3 274 578C319.7 568.7 365.3 556.3 411.2 545C457 533.7 503 523.3 548.8 527C594.7 530.7 640.3 548.3 686 554C731.7 559.7 777.3 553.3 823 548.3C868.7 543.3 914.3 539.7 960 543.5C1005.7 547.3 1051.3 558.7 1097 563.5C1142.7 568.3 1188.3 566.7 1234 572C1279.7 577.3 1325.3 589.7 1371.2 591.7C1417 593.7 1463 585.3 1508.8 584.2C1554.7 583 1600.3 589 1646 582.5C1691.7 576 1737.3 557 1783 549C1828.7 541 1874.3 544 1897.2 545.5L1920 547L1920 701L1897.2 701C1874.3 701 1828.7 701 1783 701C1737.3 701 1691.7 701 1646 701C1600.3 701 1554.7 701 1508.8 701C1463 701 1417 701 1371.2 701C1325.3 701 1279.7 701 1234 701C1188.3 701 1142.7 701 1097 701C1051.3 701 1005.7 701 960 701C914.3 701 868.7 701 823 701C777.3 701 731.7 701 686 701C640.3 701 594.7 701 548.8 701C503 701 457 701 411.2 701C365.3 701 319.7 701 274 701C228.3 701 182.7 701 137 701C91.3 701 45.7 701 22.8 701L0 701Z" fill="#e3f2fc"></path><path d="M0 581L22.8 583.5C45.7 586 91.3 591 137 601C182.7 611 228.3 626 274 636.3C319.7 646.7 365.3 652.3 411.2 653C457 653.7 503 649.3 548.8 641.3C594.7 633.3 640.3 621.7 686 621.2C731.7 620.7 777.3 631.3 823 627.3C868.7 623.3 914.3 604.7 960 597.2C1005.7 589.7 1051.3 593.3 1097 596.8C1142.7 600.3 1188.3 603.7 1234 612.7C1279.7 621.7 1325.3 636.3 1371.2 634.7C1417 633 1463 615 1508.8 606C1554.7 597 1600.3 597 1646 600.2C1691.7 603.3 1737.3 609.7 1783 618.7C1828.7 627.7 1874.3 639.3 1897.2 645.2L1920 651L1920 701L1897.2 701C1874.3 701 1828.7 701 1783 701C1737.3 701 1691.7 701 1646 701C1600.3 701 1554.7 701 1508.8 701C1463 701 1417 701 1371.2 701C1325.3 701 1279.7 701 1234 701C1188.3 701 1142.7 701 1097 701C1051.3 701 1005.7 701 960 701C914.3 701 868.7 701 823 701C777.3 701 731.7 701 686 701C640.3 701 594.7 701 548.8 701C503 701 457 701 411.2 701C365.3 701 319.7 701 274 701C228.3 701 182.7 701 137 701C91.3 701 45.7 701 22.8 701L0 701Z" fill="#ffffff"></path></svg>